<svg width="100" height="80" viewBox="0 0 100 80" fill="none" xmlns="http://www.w3.org/2000/svg">
<path d="M97.5 55H95V38.1094C95 36.125 94.2031 34.2188 92.7969 32.8125L77.1875 17.2031C75.7812 15.7969 73.875 15 71.8906 15H65V7.5C65 3.35938 61.6406 0 57.5 0H7.5C3.35938 0 0 3.35938 0 7.5V57.5C0 61.6406 3.35938 65 7.5 65H10C10 73.2812 16.7188 80 25 80C33.2812 80 40 73.2812 40 65H60C60 73.2812 66.7188 80 75 80C83.2812 80 90 73.2812 90 65H97.5C98.875 65 100 63.875 100 62.5V57.5C100 56.125 98.875 55 97.5 55ZM25 72.5C20.8594 72.5 17.5 69.1406 17.5 65C17.5 60.8594 20.8594 57.5 25 57.5C29.1406 57.5 32.5 60.8594 32.5 65C32.5 69.1406 29.1406 72.5 25 72.5ZM47.5 33.75C47.5 34.4375 46.9375 35 46.25 35H37.5V43.75C37.5 44.4375 36.9375 45 36.25 45H28.75C28.0625 45 27.5 44.4375 27.5 43.75V35H18.75C18.0625 35 17.5 34.4375 17.5 33.75V26.25C17.5 25.5625 18.0625 25 18.75 25H27.5V16.25C27.5 15.5625 28.0625 15 28.75 15H36.25C36.9375 15 37.5 15.5625 37.5 16.25V25H46.25C46.9375 25 47.5 25.5625 47.5 26.25V33.75ZM75 72.5C70.8594 72.5 67.5 69.1406 67.5 65C67.5 60.8594 70.8594 57.5 75 57.5C79.1406 57.5 82.5 60.8594 82.5 65C82.5 69.1406 79.1406 72.5 75 72.5ZM87.5 40H65V22.5H71.8906L87.5 38.1094V40Z" fill="white"/>
</svg>
