<svg width="100" height="115" viewBox="0 0 100 115" fill="none" xmlns="http://www.w3.org/2000/svg">
<path d="M50 57.1429C57.5776 57.1429 64.8449 54.1327 70.203 48.7745C75.5612 43.4163 78.5714 36.149 78.5714 28.5714C78.5714 20.9938 75.5612 13.7266 70.203 8.36838C64.8449 3.0102 57.5776 0 50 0C42.4224 0 35.1551 3.0102 29.7969 8.36838C24.4388 13.7266 21.4286 20.9938 21.4286 28.5714C21.4286 36.149 24.4388 43.4163 29.7969 48.7745C35.1551 54.1327 42.4224 57.1429 50 57.1429ZM28.5714 69.4643C12.0536 74.308 0 89.5759 0 107.656C0 111.317 2.96875 114.286 6.62946 114.286H93.3705C97.0312 114.286 100 111.317 100 107.656C100 89.5759 87.9464 74.308 71.4286 69.4643V80.8036C77.5893 82.3884 82.1429 87.9911 82.1429 94.6429V103.571C82.1429 105.536 80.5357 107.143 78.5714 107.143H75C73.0357 107.143 71.4286 105.536 71.4286 103.571C71.4286 101.607 73.0357 100 75 100V94.6429C75 90.692 71.808 87.5 67.8571 87.5C63.9062 87.5 60.7143 90.692 60.7143 94.6429V100C62.6786 100 64.2857 101.607 64.2857 103.571C64.2857 105.536 62.6786 107.143 60.7143 107.143H57.1429C55.1786 107.143 53.5714 105.536 53.5714 103.571V94.6429C53.5714 87.9911 58.125 82.3884 64.2857 80.8036V68.058C62.9464 67.9241 61.5848 67.8571 60.2009 67.8571H39.7991C38.4152 67.8571 37.0536 67.9241 35.7143 68.058V82.6562C40.8705 84.1964 44.6429 88.9732 44.6429 94.6429C44.6429 101.54 39.0402 107.143 32.1429 107.143C25.2455 107.143 19.6429 101.54 19.6429 94.6429C19.6429 88.9732 23.4152 84.1964 28.5714 82.6562V69.4643ZM32.1429 100C33.5637 100 34.9263 99.4356 35.9309 98.4309C36.9356 97.4263 37.5 96.0637 37.5 94.6429C37.5 93.2221 36.9356 91.8594 35.9309 90.8548C34.9263 89.8501 33.5637 89.2857 32.1429 89.2857C30.7221 89.2857 29.3594 89.8501 28.3548 90.8548C27.3501 91.8594 26.7857 93.2221 26.7857 94.6429C26.7857 96.0637 27.3501 97.4263 28.3548 98.4309C29.3594 99.4356 30.7221 100 32.1429 100Z" fill="white"/>
</svg>
