<svg width="100" height="80" viewBox="0 0 100 80" fill="none" xmlns="http://www.w3.org/2000/svg">
<path d="M74.9998 49.9999C77.9665 49.9999 80.8666 49.1201 83.3333 47.4719C85.8 45.8237 87.7226 43.481 88.8579 40.7401C89.9933 37.9993 90.2903 34.9833 89.7115 32.0736C89.1328 29.1639 87.7042 26.4911 85.6064 24.3933C83.5086 22.2955 80.8358 20.8669 77.9261 20.2882C75.0164 19.7094 72.0004 20.0064 69.2596 21.1417C66.5187 22.2771 64.176 24.1996 62.5278 26.6664C60.8796 29.1331 59.9998 32.0332 59.9998 34.9999C59.9998 38.9781 61.5802 42.7934 64.3932 45.6065C67.2063 48.4195 71.0216 49.9999 74.9998 49.9999ZM82.4998 54.9998C82.1254 54.9985 81.7532 55.056 81.3966 55.1702C77.253 56.6098 72.745 56.6098 68.6014 55.1702C68.2454 55.056 67.8737 54.9985 67.4998 54.9998C65.1935 54.9998 62.9099 55.4557 60.7804 56.3412C58.6509 57.2267 56.7174 58.5244 55.0911 60.1597C53.4648 61.795 52.1778 63.7356 51.3041 65.87C50.4303 68.0044 49.9871 70.2904 49.9999 72.5967C50.0217 76.6998 53.3952 79.9998 57.4998 79.9998H92.4997C96.6044 79.9998 99.9779 76.6998 99.9997 72.5967C100.012 70.2904 99.5693 68.0044 98.6955 65.87C97.8218 63.7356 96.5348 61.795 94.9085 60.1597C93.2822 58.5244 91.3487 57.2267 89.2192 56.3412C87.0896 55.4557 84.8061 54.9998 82.4998 54.9998ZM51.5483 56.6327C52.605 55.5935 53.7611 54.6604 54.9998 53.8467V19.9999C54.9998 18.6739 54.4731 17.4021 53.5354 16.4644C52.5977 15.5267 51.3259 15 49.9999 15H44.9999V4.99999C44.9999 3.67391 44.4731 2.40214 43.5354 1.46446C42.5977 0.526783 41.326 0 39.9999 0L15 0C13.6739 0 12.4021 0.526783 11.4644 1.46446C10.5268 2.40214 9.99997 3.67391 9.99997 4.99999V15H4.99999C3.67391 15 2.40214 15.5267 1.46446 16.4644C0.526783 17.4021 0 18.6739 0 19.9999L0 77.4998C0 78.1628 0.263391 78.7987 0.732231 79.2676C1.20107 79.7364 1.83695 79.9998 2.49999 79.9998H47.5483C45.9196 77.8833 45.0249 75.2937 44.9999 72.6232C44.9757 69.6567 45.5422 66.715 46.6665 63.9696C47.7908 61.2242 49.4503 58.7301 51.5483 56.6327ZM22.4999 63.1248C22.4999 63.6221 22.3024 64.099 21.9508 64.4507C21.5991 64.8023 21.1222 64.9998 20.6249 64.9998H14.375C13.8777 64.9998 13.4008 64.8023 13.0491 64.4507C12.6975 64.099 12.5 63.6221 12.5 63.1248V56.8748C12.5 56.3776 12.6975 55.9006 13.0491 55.549C13.4008 55.1974 13.8777 54.9998 14.375 54.9998H20.6249C21.1222 54.9998 21.5991 55.1974 21.9508 55.549C22.3024 55.9006 22.4999 56.3776 22.4999 56.8748V63.1248ZM22.4999 43.1249C22.4999 43.6222 22.3024 44.0991 21.9508 44.4507C21.5991 44.8023 21.1222 44.9999 20.6249 44.9999H14.375C13.8777 44.9999 13.4008 44.8023 13.0491 44.4507C12.6975 44.0991 12.5 43.6222 12.5 43.1249V36.8749C12.5 36.3776 12.6975 35.9007 13.0491 35.5491C13.4008 35.1974 13.8777 34.9999 14.375 34.9999H20.6249C21.1222 34.9999 21.5991 35.1974 21.9508 35.5491C22.3024 35.9007 22.4999 36.3776 22.4999 36.8749V43.1249ZM29.9999 24.0624C29.9999 24.3111 29.9011 24.5495 29.7253 24.7253C29.5495 24.9012 29.3111 24.9999 29.0624 24.9999H25.9374C25.6888 24.9999 25.4503 24.9012 25.2745 24.7253C25.0987 24.5495 24.9999 24.3111 24.9999 24.0624V19.9999H20.9374C20.6888 19.9999 20.4503 19.9012 20.2745 19.7254C20.0987 19.5495 19.9999 19.3111 19.9999 19.0624V15.9375C19.9999 15.6888 20.0987 15.4504 20.2745 15.2745C20.4503 15.0987 20.6888 15 20.9374 15H24.9999V10.9375C24.9999 10.6888 25.0987 10.4504 25.2745 10.2746C25.4503 10.0987 25.6888 9.99997 25.9374 9.99997H29.0624C29.3111 9.99997 29.5495 10.0987 29.7253 10.2746C29.9011 10.4504 29.9999 10.6888 29.9999 10.9375V15H34.0624C34.311 15 34.5495 15.0987 34.7253 15.2745C34.9011 15.4504 34.9999 15.6888 34.9999 15.9375V19.0624C34.9999 19.3111 34.9011 19.5495 34.7253 19.7254C34.5495 19.9012 34.311 19.9999 34.0624 19.9999H29.9999V24.0624ZM42.4999 63.1248C42.4999 63.6221 42.3023 64.099 41.9507 64.4507C41.5991 64.8023 41.1222 64.9998 40.6249 64.9998H34.3749C33.8776 64.9998 33.4007 64.8023 33.0491 64.4507C32.6975 64.099 32.4999 63.6221 32.4999 63.1248V56.8748C32.4999 56.3776 32.6975 55.9006 33.0491 55.549C33.4007 55.1974 33.8776 54.9998 34.3749 54.9998H40.6249C41.1222 54.9998 41.5991 55.1974 41.9507 55.549C42.3023 55.9006 42.4999 56.3776 42.4999 56.8748V63.1248ZM42.4999 43.1249C42.4999 43.6222 42.3023 44.0991 41.9507 44.4507C41.5991 44.8023 41.1222 44.9999 40.6249 44.9999H34.3749C33.8776 44.9999 33.4007 44.8023 33.0491 44.4507C32.6975 44.0991 32.4999 43.6222 32.4999 43.1249V36.8749C32.4999 36.3776 32.6975 35.9007 33.0491 35.5491C33.4007 35.1974 33.8776 34.9999 34.3749 34.9999H40.6249C41.1222 34.9999 41.5991 35.1974 41.9507 35.5491C42.3023 35.9007 42.4999 36.3776 42.4999 36.8749V43.1249Z" fill="white"/>
</svg>
