<svg width="100" height="100" viewBox="0 0 100 100" fill="none" xmlns="http://www.w3.org/2000/svg">
<path d="M44.4444 77.7778H55.5555V55.5555H77.7778V44.4444H55.5555V22.2222H44.4444V44.4444H22.2222V55.5555H44.4444V77.7778ZM11.1111 100C8.05555 100 5.44074 98.9129 3.26667 96.7389C1.09259 94.5648 0.0037037 91.9481 0 88.8889V11.1111C0 8.05555 1.08889 5.44074 3.26667 3.26667C5.44444 1.09259 8.05926 0.0037037 11.1111 0H88.8889C91.9444 0 94.5611 1.08889 96.7389 3.26667C98.9167 5.44444 100.004 8.05926 100 11.1111V88.8889C100 91.9444 98.9129 94.5611 96.7389 96.7389C94.5648 98.9167 91.9481 100.004 88.8889 100H11.1111Z" fill="white"/>
</svg>
