<svg width="100" height="89" viewBox="0 0 100 89" fill="none" xmlns="http://www.w3.org/2000/svg">
<path d="M99.9738 44.3614C99.9738 47.4867 97.3694 49.9348 94.4178 49.9348H88.8617L88.9833 77.7497C88.9833 78.2185 88.9485 78.6872 88.8965 79.156V81.9514C88.8965 85.7886 85.7886 88.8965 81.9514 88.8965H79.1734C78.9824 88.8965 78.7914 88.8965 78.6004 88.8791C78.3574 88.8965 78.1143 88.8965 77.8712 88.8965H68.0613C64.2242 88.8965 61.1163 85.7886 61.1163 81.9514V66.6723C61.1163 63.5992 58.6335 61.1163 55.5603 61.1163H44.4482C41.375 61.1163 38.8922 63.5992 38.8922 66.6723V81.9514C38.8922 85.7886 35.7843 88.8965 31.9472 88.8965H22.2415C21.981 88.8965 21.7206 88.8791 21.4602 88.8617C21.2518 88.8791 21.0435 88.8965 20.8351 88.8965H18.0571C14.22 88.8965 11.1121 85.7886 11.1121 81.9514V62.5053C11.1121 62.3491 11.1121 62.1754 11.1294 62.0192V49.9348H5.55603C2.43076 49.9348 0 47.504 0 44.3614C0 42.7988 0.520878 41.4098 1.73626 40.1944L46.2539 1.38901C47.4693 0.173626 48.8583 0 50.0737 0C51.2891 0 52.6781 0.347252 53.7198 1.21538L98.0639 40.1944C99.4529 41.4098 100.147 42.7988 99.9738 44.3614Z" fill="white"/>
</svg>
