<svg width="64" height="57" viewBox="0 0 64 57" fill="none" xmlns="http://www.w3.org/2000/svg">
<path d="M58.6764 46.9411C59.968 46.9418 61.2098 47.4393 62.1446 48.3306C63.0794 49.2219 63.6354 50.4387 63.6975 51.7288C63.7596 53.0189 63.3229 54.2835 62.478 55.2604C61.6331 56.2374 60.4448 56.8518 59.1592 56.9765L58.6764 56.9999H5.0294C3.7378 56.9993 2.49594 56.5018 1.56117 55.6104C0.626401 54.7191 0.0703713 53.5023 0.00830099 52.2122C-0.0537694 50.9221 0.382878 49.6576 1.22776 48.6806C2.07265 47.7037 3.261 47.0892 4.54658 46.9646L5.0294 46.9411H58.6764ZM58.6764 23.4706C60.0103 23.4706 61.2895 24.0004 62.2327 24.9436C63.1759 25.8868 63.7058 27.1661 63.7058 28.5C63.7058 29.8338 63.1759 31.1131 62.2327 32.0563C61.2895 32.9995 60.0103 33.5294 58.6764 33.5294H5.0294C3.69552 33.5294 2.41627 32.9995 1.47308 32.0563C0.529882 31.1131 0 29.8338 0 28.5C0 27.1661 0.529882 25.8868 1.47308 24.9436C2.41627 24.0004 3.69552 23.4706 5.0294 23.4706H58.6764ZM58.6764 0C60.0103 0 61.2895 0.529882 62.2327 1.47308C63.1759 2.41628 63.7058 3.69552 63.7058 5.0294C63.7058 6.36329 63.1759 7.64254 62.2327 8.58573C61.2895 9.52893 60.0103 10.0588 58.6764 10.0588H5.0294C3.69552 10.0588 2.41627 9.52893 1.47308 8.58573C0.529882 7.64254 0 6.36329 0 5.0294C0 3.69552 0.529882 2.41628 1.47308 1.47308C2.41627 0.529882 3.69552 0 5.0294 0H58.6764Z" fill="white"/>
</svg>
