<svg width="40" height="41" viewBox="0 0 40 41" fill="none" xmlns="http://www.w3.org/2000/svg">
<path d="M4 0C2.93913 0 1.92172 0.421428 1.17157 1.17157C0.421428 1.92172 0 2.93913 0 4C0 5.06087 0.421428 6.07828 1.17157 6.82843C1.92172 7.57857 2.93913 8 4 8H36C37.0609 8 38.0783 7.57857 38.8284 6.82843C39.5786 6.07828 40 5.06087 40 4C40 2.93913 39.5786 1.92172 38.8284 1.17157C38.0783 0.421428 37.0609 0 36 0H4ZM0 20.068C0 19.0071 0.421428 17.9897 1.17157 17.2396C1.92172 16.4894 2.93913 16.068 4 16.068H36C37.0609 16.068 38.0783 16.4894 38.8284 17.2396C39.5786 17.9897 40 19.0071 40 20.068C40 21.1289 39.5786 22.1463 38.8284 22.8964C38.0783 23.6466 37.0609 24.068 36 24.068H4C2.93913 24.068 1.92172 23.6466 1.17157 22.8964C0.421428 22.1463 0 21.1289 0 20.068ZM4 32.136C2.93913 32.136 1.92172 32.5574 1.17157 33.3076C0.421428 34.0577 0 35.0751 0 36.136C0 37.1969 0.421428 38.2143 1.17157 38.9644C1.92172 39.7146 2.93913 40.136 4 40.136H36C37.0609 40.136 38.0783 39.7146 38.8284 38.9644C39.5786 38.2143 40 37.1969 40 36.136C40 35.0751 39.5786 34.0577 38.8284 33.3076C38.0783 32.5574 37.0609 32.136 36 32.136H4Z" fill="#4A7942"/>
</svg>
