<svg width="64" height="57" viewBox="0 0 64 57" fill="none" xmlns="http://www.w3.org/2000/svg">
<path d="M58.6764 46.9412C59.9681 46.9418 61.2099 47.4393 62.1447 48.3307C63.0795 49.222 63.6355 50.4388 63.6976 51.7289C63.7596 53.019 63.323 54.2835 62.4781 55.2605C61.6332 56.2374 60.4448 56.8519 59.1593 56.9765L58.6764 57H5.02941C3.7378 56.9993 2.49595 56.5018 1.56117 55.6105C0.626401 54.7192 0.0703714 53.5024 0.008301 52.2123C-0.0537694 50.9222 0.382878 49.6576 1.22776 48.6807C2.07265 47.7037 3.26101 47.0893 4.54659 46.9646L5.02941 46.9412H58.6764ZM58.6764 23.4706C60.0103 23.4706 61.2896 24.0005 62.2328 24.9437C63.176 25.8869 63.7059 27.1661 63.7059 28.5C63.7059 29.8339 63.176 31.1131 62.2328 32.0563C61.2896 32.9995 60.0103 33.5294 58.6764 33.5294H5.02941C3.69553 33.5294 2.41628 32.9995 1.47308 32.0563C0.529883 31.1131 0 29.8339 0 28.5C0 27.1661 0.529883 25.8869 1.47308 24.9437C2.41628 24.0005 3.69553 23.4706 5.02941 23.4706H58.6764ZM58.6764 0C60.0103 0 61.2896 0.529883 62.2328 1.47308C63.176 2.41628 63.7059 3.69553 63.7059 5.02941C63.7059 6.36329 63.176 7.64254 62.2328 8.58574C61.2896 9.52894 60.0103 10.0588 58.6764 10.0588H5.02941C3.69553 10.0588 2.41628 9.52894 1.47308 8.58574C0.529883 7.64254 0 6.36329 0 5.02941C0 3.69553 0.529883 2.41628 1.47308 1.47308C2.41628 0.529883 3.69553 0 5.02941 0H58.6764Z" fill="white"/>
</svg>
