<svg width="80" height="80" viewBox="0 0 80 80" fill="none" xmlns="http://www.w3.org/2000/svg">
<path d="M79.5897 78.4002C79.3195 78.8867 78.931 79.2907 78.4631 79.5715C77.9952 79.8523 77.4644 80.0001 76.9241 80H3.07394C2.53406 79.9994 2.00383 79.8512 1.5365 79.5701C1.06916 79.2891 0.681161 78.8851 0.411463 78.3988C0.141766 77.9125 -0.000138501 77.361 1.01435e-07 76.7996C0.000138704 76.2383 0.142315 75.6868 0.412253 75.2007C6.27027 64.6701 15.2977 57.1191 25.8329 53.5396C20.6217 50.3139 16.5729 45.3986 14.3083 39.5487C12.0438 33.6987 11.6886 27.2376 13.2973 21.1574C14.9061 15.0773 18.3899 9.71433 23.2136 5.89218C28.0373 2.07002 33.9344 0 39.999 0C46.0637 0 51.9607 2.07002 56.7845 5.89218C61.6082 9.71433 65.092 15.0773 66.7007 21.1574C68.3095 27.2376 67.9543 33.6987 65.6897 39.5487C63.4251 45.3986 59.3764 50.3139 54.1652 53.5396C64.7004 57.1191 73.7278 64.6701 79.5858 75.2007C79.8565 75.6867 79.9993 76.2383 80 76.7999C80.0007 77.3615 79.8592 77.9135 79.5897 78.4002Z" fill="#4A7942"/>
</svg>
