<svg width="80" height="80" viewBox="0 0 80 80" fill="none" xmlns="http://www.w3.org/2000/svg">
<path fill-rule="evenodd" clip-rule="evenodd" d="M80 40C80 62.092 62.092 80 40 80C17.908 80 0 62.092 0 40C0 17.908 17.908 0 40 0C62.092 0 80 17.908 80 40ZM72 40C72 48.4869 68.6286 56.6263 62.6274 62.6274C56.6263 68.6286 48.4869 72 40 72C31.5131 72 23.3737 68.6286 17.3726 62.6274C11.3714 56.6263 8 48.4869 8 40C8 31.5131 11.3714 23.3737 17.3726 17.3726C23.3737 11.3714 31.5131 8 40 8C48.4869 8 56.6263 11.3714 62.6274 17.3726C68.6286 23.3737 72 31.5131 72 40Z" fill="#4A7942"/>
</svg>
